solid PressureWasher01.stl
facet normal -8.588887e-01 4.958797e-01 1.281147e-01
    outer loop
        vertex -1.212212e+01 -2.692104e-07 -2.984400e+01
        vertex -6.566030e+00 -1.458196e-07 7.404377e+00
        vertex -3.283015e+00 5.686348e+00 7.404377e+00
    endloop
endfacet
facet normal -8.588888e-01 4.958797e-01 1.281148e-01
    outer loop
        vertex -1.212212e+01 -2.692104e-07 -2.984400e+01
        vertex -3.283015e+00 5.686348e+00 7.404377e+00
        vertex -6.061062e+00 1.049807e+01 -2.984400e+01
    endloop
endfacet
facet normal -0.000000e+00 9.917594e-01 1.281148e-01
    outer loop
        vertex -3.283015e+00 5.686348e+00 7.404377e+00
        vertex 3.283015e+00 5.686348e+00 7.404377e+00
        vertex 6.061062e+00 1.049807e+01 -2.984400e+01
    endloop
endfacet
facet normal 0.000000e+00 9.917594e-01 1.281148e-01
    outer loop
        vertex -3.283015e+00 5.686348e+00 7.404377e+00
        vertex 6.061062e+00 1.049807e+01 -2.984400e+01
        vertex -6.061062e+00 1.049807e+01 -2.984400e+01
    endloop
endfacet
facet normal 8.588887e-01 4.958797e-01 1.281147e-01
    outer loop
        vertex 1.212212e+01 -2.692104e-07 -2.984400e+01
        vertex 3.283015e+00 5.686348e+00 7.404377e+00
        vertex 6.566030e+00 -1.458196e-07 7.404377e+00
    endloop
endfacet
facet normal 8.588888e-01 4.958797e-01 1.281148e-01
    outer loop
        vertex 1.212212e+01 -2.692104e-07 -2.984400e+01
        vertex 6.061062e+00 1.049807e+01 -2.984400e+01
        vertex 3.283015e+00 5.686348e+00 7.404377e+00
    endloop
endfacet
facet normal 8.588887e-01 -4.958797e-01 1.281147e-01
    outer loop
        vertex 3.283015e+00 -5.686348e+00 7.404377e+00
        vertex 1.212212e+01 -2.692104e-07 -2.984400e+01
        vertex 6.566030e+00 -1.458196e-07 7.404377e+00
    endloop
endfacet
facet normal 8.588888e-01 -4.958797e-01 1.281148e-01
    outer loop
        vertex 6.061062e+00 -1.049807e+01 -2.984400e+01
        vertex 1.212212e+01 -2.692104e-07 -2.984400e+01
        vertex 3.283015e+00 -5.686348e+00 7.404377e+00
    endloop
endfacet
facet normal 0.000000e+00 -9.917594e-01 1.281148e-01
    outer loop
        vertex -6.061062e+00 -1.049807e+01 -2.984400e+01
        vertex 3.283015e+00 -5.686348e+00 7.404377e+00
        vertex -3.283015e+00 -5.686348e+00 7.404377e+00
    endloop
endfacet
facet normal 0.000000e+00 -9.917594e-01 1.281148e-01
    outer loop
        vertex 6.061062e+00 -1.049807e+01 -2.984400e+01
        vertex 3.283015e+00 -5.686348e+00 7.404377e+00
        vertex -6.061062e+00 -1.049807e+01 -2.984400e+01
    endloop
endfacet
facet normal -8.588888e-01 -4.958797e-01 1.281148e-01
    outer loop
        vertex -6.061062e+00 -1.049807e+01 -2.984400e+01
        vertex -3.283015e+00 -5.686348e+00 7.404377e+00
        vertex -1.212212e+01 -2.692104e-07 -2.984400e+01
    endloop
endfacet
facet normal -8.588887e-01 -4.958797e-01 1.281147e-01
    outer loop
        vertex -3.283015e+00 -5.686348e+00 7.404377e+00
        vertex -6.566030e+00 -1.458196e-07 7.404377e+00
        vertex -1.212212e+01 -2.692104e-07 -2.984400e+01
    endloop
endfacet
facet normal -8.633915e-01 4.984794e-01 7.793280e-02
    outer loop
        vertex -6.566030e+00 -1.458196e-07 7.404377e+00
        vertex -2.029850e+00 3.515803e+00 3.517118e+01
        vertex -3.283015e+00 5.686348e+00 7.404377e+00
    endloop
endfacet
facet normal -8.633915e-01 4.984793e-01 7.793281e-02
    outer loop
        vertex -6.566030e+00 -1.458196e-07 7.404377e+00
        vertex -4.059699e+00 -9.015858e-08 3.517118e+01
        vertex -2.029850e+00 3.515803e+00 3.517118e+01
    endloop
endfacet
facet normal -0.000000e+00 9.969586e-01 7.793278e-02
    outer loop
        vertex -2.029850e+00 3.515803e+00 3.517118e+01
        vertex 2.029850e+00 3.515803e+00 3.517118e+01
        vertex 3.283015e+00 5.686348e+00 7.404377e+00
    endloop
endfacet
facet normal 0.000000e+00 9.969586e-01 7.793278e-02
    outer loop
        vertex -2.029850e+00 3.515803e+00 3.517118e+01
        vertex 3.283015e+00 5.686348e+00 7.404377e+00
        vertex -3.283015e+00 5.686348e+00 7.404377e+00
    endloop
endfacet
facet normal 8.633915e-01 4.984793e-01 7.793281e-02
    outer loop
        vertex 6.566030e+00 -1.458196e-07 7.404377e+00
        vertex 2.029850e+00 3.515803e+00 3.517118e+01
        vertex 4.059699e+00 -9.015858e-08 3.517118e+01
    endloop
endfacet
facet normal 8.633915e-01 4.984794e-01 7.793280e-02
    outer loop
        vertex 6.566030e+00 -1.458196e-07 7.404377e+00
        vertex 3.283015e+00 5.686348e+00 7.404377e+00
        vertex 2.029850e+00 3.515803e+00 3.517118e+01
    endloop
endfacet
facet normal 8.633915e-01 -4.984793e-01 7.793281e-02
    outer loop
        vertex 2.029850e+00 -3.515803e+00 3.517118e+01
        vertex 6.566030e+00 -1.458196e-07 7.404377e+00
        vertex 4.059699e+00 -9.015858e-08 3.517118e+01
    endloop
endfacet
facet normal 8.633915e-01 -4.984794e-01 7.793280e-02
    outer loop
        vertex 3.283015e+00 -5.686348e+00 7.404377e+00
        vertex 6.566030e+00 -1.458196e-07 7.404377e+00
        vertex 2.029850e+00 -3.515803e+00 3.517118e+01
    endloop
endfacet
facet normal 0.000000e+00 -9.969586e-01 7.793278e-02
    outer loop
        vertex -3.283015e+00 -5.686348e+00 7.404377e+00
        vertex 2.029850e+00 -3.515803e+00 3.517118e+01
        vertex -2.029850e+00 -3.515803e+00 3.517118e+01
    endloop
endfacet
facet normal 0.000000e+00 -9.969586e-01 7.793278e-02
    outer loop
        vertex 3.283015e+00 -5.686348e+00 7.404377e+00
        vertex 2.029850e+00 -3.515803e+00 3.517118e+01
        vertex -3.283015e+00 -5.686348e+00 7.404377e+00
    endloop
endfacet
facet normal -8.633915e-01 -4.984794e-01 7.793280e-02
    outer loop
        vertex -3.283015e+00 -5.686348e+00 7.404377e+00
        vertex -2.029850e+00 -3.515803e+00 3.517118e+01
        vertex -6.566030e+00 -1.458196e-07 7.404377e+00
    endloop
endfacet
facet normal -8.633915e-01 -4.984793e-01 7.793281e-02
    outer loop
        vertex -2.029850e+00 -3.515803e+00 3.517118e+01
        vertex -4.059699e+00 -9.015858e-08 3.517118e+01
        vertex -6.566030e+00 -1.458196e-07 7.404377e+00
    endloop
endfacet
facet normal 7.806975e-01 -4.507359e-01 -4.328379e-01
    outer loop
        vertex -1.212212e+01 -2.692104e-07 -2.984400e+01
        vertex -6.061062e+00 1.049807e+01 -2.984400e+01
        vertex -8.470957e+00 -1.785933e-07 -2.325849e+01
    endloop
endfacet
facet normal 7.806975e-01 -4.507359e-01 -4.328379e-01
    outer loop
        vertex -8.470957e+00 -1.785933e-07 -2.325849e+01
        vertex -6.061062e+00 1.049807e+01 -2.984400e+01
        vertex -4.235478e+00 7.336064e+00 -2.325849e+01
    endloop
endfacet
facet normal 8.503855e-01 -4.909704e-01 -1.891890e-01
    outer loop
        vertex -8.470957e+00 -1.785933e-07 -2.325849e+01
        vertex -8.386564e-01 1.452595e+00 7.278256e+00
        vertex -1.677313e+00 -3.416642e-08 7.278256e+00
    endloop
endfacet
facet normal 8.503856e-01 -4.909703e-01 -1.891890e-01
    outer loop
        vertex -8.470957e+00 -1.785933e-07 -2.325849e+01
        vertex -4.235478e+00 7.336064e+00 -2.325849e+01
        vertex -8.386564e-01 1.452595e+00 7.278256e+00
    endloop
endfacet
facet normal 0.000000e+00 -9.014718e-01 -4.328379e-01
    outer loop
        vertex 4.235478e+00 7.336064e+00 -2.325849e+01
        vertex -6.061062e+00 1.049807e+01 -2.984400e+01
        vertex 6.061062e+00 1.049807e+01 -2.984400e+01
    endloop
endfacet
facet normal 0.000000e+00 -9.014718e-01 -4.328379e-01
    outer loop
        vertex -4.235478e+00 7.336064e+00 -2.325849e+01
        vertex -6.061062e+00 1.049807e+01 -2.984400e+01
        vertex 4.235478e+00 7.336064e+00 -2.325849e+01
    endloop
endfacet
facet normal 0.000000e+00 -9.819407e-01 -1.891890e-01
    outer loop
        vertex 8.386564e-01 1.452595e+00 7.278256e+00
        vertex -4.235478e+00 7.336064e+00 -2.325849e+01
        vertex 4.235478e+00 7.336064e+00 -2.325849e+01
    endloop
endfacet
facet normal -0.000000e+00 -9.819407e-01 -1.891890e-01
    outer loop
        vertex 8.386564e-01 1.452595e+00 7.278256e+00
        vertex -8.386564e-01 1.452595e+00 7.278256e+00
        vertex -4.235478e+00 7.336064e+00 -2.325849e+01
    endloop
endfacet
facet normal -7.806975e-01 -4.507359e-01 -4.328379e-01
    outer loop
        vertex 8.470957e+00 -2.045999e-07 -2.325849e+01
        vertex 4.235478e+00 7.336064e+00 -2.325849e+01
        vertex 6.061062e+00 1.049807e+01 -2.984400e+01
    endloop
endfacet
facet normal -7.806975e-01 -4.507359e-01 -4.328379e-01
    outer loop
        vertex 1.212212e+01 -2.692104e-07 -2.984400e+01
        vertex 8.470957e+00 -2.045999e-07 -2.325849e+01
        vertex 6.061062e+00 1.049807e+01 -2.984400e+01
    endloop
endfacet
facet normal -8.503856e-01 -4.909703e-01 -1.891890e-01
    outer loop
        vertex 8.470957e+00 -2.045999e-07 -2.325849e+01
        vertex 8.386564e-01 1.452595e+00 7.278256e+00
        vertex 4.235478e+00 7.336064e+00 -2.325849e+01
    endloop
endfacet
facet normal -8.503855e-01 -4.909704e-01 -1.891890e-01
    outer loop
        vertex 8.470957e+00 -2.045999e-07 -2.325849e+01
        vertex 1.677313e+00 -5.502842e-08 7.278256e+00
        vertex 8.386564e-01 1.452595e+00 7.278256e+00
    endloop
endfacet
facet normal -7.806975e-01 4.507359e-01 -4.328379e-01
    outer loop
        vertex 4.235478e+00 -7.336064e+00 -2.325849e+01
        vertex 8.470957e+00 -2.045999e-07 -2.325849e+01
        vertex 1.212212e+01 -2.692104e-07 -2.984400e+01
    endloop
endfacet
facet normal -7.806975e-01 4.507359e-01 -4.328379e-01
    outer loop
        vertex 6.061062e+00 -1.049807e+01 -2.984400e+01
        vertex 4.235478e+00 -7.336064e+00 -2.325849e+01
        vertex 1.212212e+01 -2.692104e-07 -2.984400e+01
    endloop
endfacet
facet normal -8.503856e-01 4.909703e-01 -1.891890e-01
    outer loop
        vertex 4.235478e+00 -7.336064e+00 -2.325849e+01
        vertex 8.386564e-01 -1.452595e+00 7.278256e+00
        vertex 8.470957e+00 -2.045999e-07 -2.325849e+01
    endloop
endfacet
facet normal -8.503855e-01 4.909704e-01 -1.891890e-01
    outer loop
        vertex 8.386564e-01 -1.452595e+00 7.278256e+00
        vertex 1.677313e+00 -5.502842e-08 7.278256e+00
        vertex 8.470957e+00 -2.045999e-07 -2.325849e+01
    endloop
endfacet
facet normal 0.000000e+00 9.014718e-01 -4.328379e-01
    outer loop
        vertex -6.061062e+00 -1.049807e+01 -2.984400e+01
        vertex -4.235478e+00 -7.336064e+00 -2.325849e+01
        vertex 6.061062e+00 -1.049807e+01 -2.984400e+01
    endloop
endfacet
facet normal 0.000000e+00 9.014718e-01 -4.328379e-01
    outer loop
        vertex 6.061062e+00 -1.049807e+01 -2.984400e+01
        vertex -4.235478e+00 -7.336064e+00 -2.325849e+01
        vertex 4.235478e+00 -7.336064e+00 -2.325849e+01
    endloop
endfacet
facet normal 0.000000e+00 9.819407e-01 -1.891890e-01
    outer loop
        vertex -4.235478e+00 -7.336064e+00 -2.325849e+01
        vertex -8.386564e-01 -1.452595e+00 7.278256e+00
        vertex 4.235478e+00 -7.336064e+00 -2.325849e+01
    endloop
endfacet
facet normal 0.000000e+00 9.819407e-01 -1.891890e-01
    outer loop
        vertex 4.235478e+00 -7.336064e+00 -2.325849e+01
        vertex -8.386564e-01 -1.452595e+00 7.278256e+00
        vertex 8.386564e-01 -1.452595e+00 7.278256e+00
    endloop
endfacet
facet normal 7.806975e-01 4.507359e-01 -4.328379e-01
    outer loop
        vertex -6.061062e+00 -1.049807e+01 -2.984400e+01
        vertex -1.212212e+01 -2.692104e-07 -2.984400e+01
        vertex -4.235478e+00 -7.336064e+00 -2.325849e+01
    endloop
endfacet
facet normal 7.806975e-01 4.507359e-01 -4.328379e-01
    outer loop
        vertex -4.235478e+00 -7.336064e+00 -2.325849e+01
        vertex -1.212212e+01 -2.692104e-07 -2.984400e+01
        vertex -8.470957e+00 -1.785933e-07 -2.325849e+01
    endloop
endfacet
facet normal 8.503855e-01 4.909704e-01 -1.891890e-01
    outer loop
        vertex -8.386564e-01 -1.452595e+00 7.278256e+00
        vertex -8.470957e+00 -1.785933e-07 -2.325849e+01
        vertex -1.677313e+00 -3.416642e-08 7.278256e+00
    endloop
endfacet
facet normal 8.503856e-01 4.909703e-01 -1.891890e-01
    outer loop
        vertex -4.235478e+00 -7.336064e+00 -2.325849e+01
        vertex -8.470957e+00 -1.785933e-07 -2.325849e+01
        vertex -8.386564e-01 -1.452595e+00 7.278256e+00
    endloop
endfacet
facet normal -5.887453e-01 3.399122e-01 7.333748e-01
    outer loop
        vertex -4.059699e+00 -9.015858e-08 3.517118e+01
        vertex -1.061319e+00 -2.855381e-08 3.757824e+01
        vertex -2.029850e+00 3.515803e+00 3.517118e+01
    endloop
endfacet
facet normal -5.887452e-01 3.399123e-01 7.333749e-01
    outer loop
        vertex -1.061319e+00 -2.855381e-08 3.757824e+01
        vertex -5.306597e-01 9.191294e-01 3.757824e+01
        vertex -2.029850e+00 3.515803e+00 3.517118e+01
    endloop
endfacet
facet normal 8.658912e-01 -4.999226e-01 -1.760342e-02
    outer loop
        vertex -1.677313e+00 -3.416642e-08 7.278256e+00
        vertex -8.386564e-01 1.452595e+00 7.278256e+00
        vertex -5.306597e-01 9.191294e-01 3.757824e+01
    endloop
endfacet
facet normal 8.658912e-01 -4.999226e-01 -1.760342e-02
    outer loop
        vertex -1.677313e+00 -3.416642e-08 7.278256e+00
        vertex -5.306597e-01 9.191294e-01 3.757824e+01
        vertex -1.061319e+00 -2.855381e-08 3.757824e+01
    endloop
endfacet
facet normal 0.000000e+00 6.798245e-01 7.333749e-01
    outer loop
        vertex -5.306597e-01 9.191294e-01 3.757824e+01
        vertex 2.029850e+00 3.515803e+00 3.517118e+01
        vertex -2.029850e+00 3.515803e+00 3.517118e+01
    endloop
endfacet
facet normal -0.000000e+00 6.798245e-01 7.333749e-01
    outer loop
        vertex -5.306597e-01 9.191294e-01 3.757824e+01
        vertex 5.306597e-01 9.191294e-01 3.757824e+01
        vertex 2.029850e+00 3.515803e+00 3.517118e+01
    endloop
endfacet
facet normal 0.000000e+00 -9.998450e-01 -1.760341e-02
    outer loop
        vertex 5.306597e-01 9.191294e-01 3.757824e+01
        vertex -8.386564e-01 1.452595e+00 7.278256e+00
        vertex 8.386564e-01 1.452595e+00 7.278256e+00
    endloop
endfacet
facet normal -0.000000e+00 -9.998450e-01 -1.760341e-02
    outer loop
        vertex 5.306597e-01 9.191294e-01 3.757824e+01
        vertex -5.306597e-01 9.191294e-01 3.757824e+01
        vertex -8.386564e-01 1.452595e+00 7.278256e+00
    endloop
endfacet
facet normal 5.887453e-01 3.399122e-01 7.333748e-01
    outer loop
        vertex 4.059699e+00 -9.015858e-08 3.517118e+01
        vertex 2.029850e+00 3.515803e+00 3.517118e+01
        vertex 1.061319e+00 -4.576578e-08 3.757824e+01
    endloop
endfacet
facet normal 5.887452e-01 3.399123e-01 7.333749e-01
    outer loop
        vertex 1.061319e+00 -4.576578e-08 3.757824e+01
        vertex 2.029850e+00 3.515803e+00 3.517118e+01
        vertex 5.306597e-01 9.191294e-01 3.757824e+01
    endloop
endfacet
facet normal -8.658912e-01 -4.999226e-01 -1.760342e-02
    outer loop
        vertex 1.677313e+00 -5.502842e-08 7.278256e+00
        vertex 5.306597e-01 9.191294e-01 3.757824e+01
        vertex 8.386564e-01 1.452595e+00 7.278256e+00
    endloop
endfacet
facet normal -8.658912e-01 -4.999227e-01 -1.760341e-02
    outer loop
        vertex 1.677313e+00 -5.502842e-08 7.278256e+00
        vertex 1.061319e+00 -4.576578e-08 3.757824e+01
        vertex 5.306597e-01 9.191294e-01 3.757824e+01
    endloop
endfacet
facet normal 5.887453e-01 -3.399122e-01 7.333748e-01
    outer loop
        vertex 2.029850e+00 -3.515803e+00 3.517118e+01
        vertex 4.059699e+00 -9.015858e-08 3.517118e+01
        vertex 1.061319e+00 -4.576578e-08 3.757824e+01
    endloop
endfacet
facet normal 5.887452e-01 -3.399123e-01 7.333749e-01
    outer loop
        vertex 2.029850e+00 -3.515803e+00 3.517118e+01
        vertex 1.061319e+00 -4.576578e-08 3.757824e+01
        vertex 5.306597e-01 -9.191294e-01 3.757824e+01
    endloop
endfacet
facet normal -8.658912e-01 4.999226e-01 -1.760342e-02
    outer loop
        vertex 8.386564e-01 -1.452595e+00 7.278256e+00
        vertex 5.306597e-01 -9.191294e-01 3.757824e+01
        vertex 1.677313e+00 -5.502842e-08 7.278256e+00
    endloop
endfacet
facet normal -8.658911e-01 4.999227e-01 -1.760341e-02
    outer loop
        vertex 5.306597e-01 -9.191294e-01 3.757824e+01
        vertex 1.061319e+00 -4.576578e-08 3.757824e+01
        vertex 1.677313e+00 -5.502842e-08 7.278256e+00
    endloop
endfacet
facet normal 0.000000e+00 -6.798245e-01 7.333749e-01
    outer loop
        vertex 2.029850e+00 -3.515803e+00 3.517118e+01
        vertex 5.306597e-01 -9.191294e-01 3.757824e+01
        vertex -2.029850e+00 -3.515803e+00 3.517118e+01
    endloop
endfacet
facet normal 0.000000e+00 -6.798245e-01 7.333749e-01
    outer loop
        vertex -2.029850e+00 -3.515803e+00 3.517118e+01
        vertex 5.306597e-01 -9.191294e-01 3.757824e+01
        vertex -5.306597e-01 -9.191294e-01 3.757824e+01
    endloop
endfacet
facet normal 0.000000e+00 9.998450e-01 -1.760341e-02
    outer loop
        vertex -8.386564e-01 -1.452595e+00 7.278256e+00
        vertex -5.306597e-01 -9.191294e-01 3.757824e+01
        vertex 8.386564e-01 -1.452595e+00 7.278256e+00
    endloop
endfacet
facet normal 0.000000e+00 9.998450e-01 -1.760341e-02
    outer loop
        vertex 8.386564e-01 -1.452595e+00 7.278256e+00
        vertex -5.306597e-01 -9.191294e-01 3.757824e+01
        vertex 5.306597e-01 -9.191294e-01 3.757824e+01
    endloop
endfacet
facet normal -5.887453e-01 -3.399122e-01 7.333748e-01
    outer loop
        vertex -2.029850e+00 -3.515803e+00 3.517118e+01
        vertex -1.061319e+00 -2.855381e-08 3.757824e+01
        vertex -4.059699e+00 -9.015858e-08 3.517118e+01
    endloop
endfacet
facet normal -5.887452e-01 -3.399123e-01 7.333749e-01
    outer loop
        vertex -2.029850e+00 -3.515803e+00 3.517118e+01
        vertex -5.306597e-01 -9.191294e-01 3.757824e+01
        vertex -1.061319e+00 -2.855381e-08 3.757824e+01
    endloop
endfacet
facet normal 8.658912e-01 4.999226e-01 -1.760342e-02
    outer loop
        vertex -8.386564e-01 -1.452595e+00 7.278256e+00
        vertex -1.677313e+00 -3.416642e-08 7.278256e+00
        vertex -5.306597e-01 -9.191294e-01 3.757824e+01
    endloop
endfacet
facet normal 8.658912e-01 4.999226e-01 -1.760342e-02
    outer loop
        vertex -5.306597e-01 -9.191294e-01 3.757824e+01
        vertex -1.677313e+00 -3.416642e-08 7.278256e+00
        vertex -1.061319e+00 -2.855381e-08 3.757824e+01
    endloop
endfacet
endsolid PressureWasher01.stl
